<svg xmlns="http://www.w3.org/2000/svg" width="159.5" height="29.5" viewBox="0 0 159.5 29.5">
  <defs>
    <style>
      .cls-1 {
        fill: #e13e20;
        fill-rule: evenodd;
      }
    </style>
  </defs>
  <path class="cls-1" d="M159.4,15.55h0c-2.29,2.1-3.483-.776-5.221-1.183h0c-4.514,2.618-9.384,1.233-14.13,1.311-8.1.133-16.19-1.182-24.3-.027-1.036.148-2.885,1.055-2.838-1.669,0.034-1.995-1.722-1.142-2.623-.793-2.956,1.144-6.354.356-9.127,2.276-1.38.955-2.074-.135-2.691-1.191h0l-2.663,1.359,0.448-2.26a5.211,5.211,0,0,0-4.692,1.05c-1.981,1.722-3.88,1.527-5.868.138-2.493,1.948-5.483,1.508-8.324,1.734-0.4.032-1.678,0.689-1.19-.539,0.47-1.184-.519-2.721,1.052-3.61,2.16-1.223,4.21-1.587,6.264.137h0c1.858-3.722,4.677-.677,7.014-1.025h0c19.271-1.209,38.543-2.255,57.856-.985,2.312-.922,2.173-3.322,3.007-5.134h0c-1.853.411-2.875-.875-3.975-2h0q-0.282.56-.565,1.12c-0.959-.87-0.206-2.028-0.491-3.011h0l-2.919-.284h0c-0.063,2.035-1.443,2.2-2.975,2.157C137.721,5.559,136,5,135.325,1.343h0c-7.936.555-15.943-1.331-23.837,0.705-0.717.414,1.5,3-1.207,1.81A21.488,21.488,0,0,1,106.46,1.08h0l-3,1.107c-0.7,2.335-2.237,2.875-4.444,2.242-1.847-.53-3.736-0.906-5.607-1.35h0c-0.885-.188-1.757-1.516-2.642-0.392-1.207,1.532-2.2,3.787-2.02-.5,0.042-.976-0.848-0.274-1.426-0.179A94.388,94.388,0,0,1,65.657,3.285a8.412,8.412,0,0,1-8.005.724h0c-2.059-1.6-4.058-.25-6.077.127-1.122,1.8-2.074.018-3.1-.152h0c-6.847.676-13.589,2.388-20.538,2.065-7.191-.334-13.709,2.181-20.148,5-1.229.538-3.626-.756-3.632,1.379-0.005,2.1,2.132,2.865,4.063,2.527,3.822-.67,7.146.843,10.569,2.06,0.83,0.3,1.751.674,1.582,1.589a3.2,3.2,0,0,1-1.492,1.8c-2.275,1.357-4.857.768-7.31,0.927-6.315.409-7.567,2.9-4.259,8.679,2.01-1.6,3.915-8.154,6.187-.085,0.3,1.057,2.043.179,3.157,0.092,5.264-.412,9.857-4.675,14.96-3.852a75.27,75.27,0,0,0,17.315.333c3.712-.251,7.067.037,9.634,3.132l1.947-1.284h0c0.079-.673.215-1.484,1.083-1.236,7.579,2.164,15.076,2.694,22.415-.928,0.889-.439,1.771-1.052,2.629.045,2.01,0.371,4.2-.449,6.055.949h0c3.411-.241,6.534-1.41,10.212-1.376,9.08,0.084,18.073,2.071,27.015,1.583,10.066-.55,20.043.88,30.053,0.158,0.914-.066,1.906.6,2.765-0.4C165,24.532,162.848,16.945,159.4,15.55ZM120.831,4c-1.672,1.36-3.285,1.531-4.461-.844ZM58.361,15.1a3.232,3.232,0,0,1-1.334-.276c0.563-1.3,1.656-2.214,2.581-1.152C60.878,15.135,59.052,14.917,58.361,15.1ZM74.8,13.662c-2.287-.561-2.456,2.416-4.266,2.576l-4,.935c-1.243.456-2.067-.381-2.964-0.99h0c-0.662.136-1.684,0.17-1.656-.5,0.072-1.659,1.546-1.3,2.628-1.421,2.38-3.779,6.467-1.848,9.66-2.918a1.123,1.123,0,0,1,1.249,1.215A1.682,1.682,0,0,1,74.8,13.662Z" transform="translate(-4.156 -0.969)"/>
</svg>
